<?xml version="1.0" encoding="UTF-8"?>
<svg version="1.1" xmlns="http://www.w3.org/2000/svg" width="168" height="168">
<path d="M0 0 C55.44 0 110.88 0 168 0 C168 55.44 168 110.88 168 168 C112.56 168 57.12 168 0 168 C0 112.56 0 57.12 0 0 Z " fill="#FDFDFD" transform="translate(0,0)"/>
<path d="M0 0 C1.19822388 0.00640503 1.19822388 0.00640503 2.4206543 0.01293945 C10.39713455 0.2433512 14.92015318 2.75245836 20.9375 7.8125 C28.51251291 16.86043209 31.37053533 25.50583649 30.46875 37.41503906 C28.53629052 51.74073691 19.77130907 64.22466954 9.015625 73.4296875 C-2.24200978 81.67077373 -16.68997346 87.40903585 -30.8125 85.5 C-35.56793697 84.15728839 -38.18552652 82.26804251 -41.3125 78.4375 C-45.26452523 70.12766124 -42.49428414 61.30830292 -39.78515625 53.0546875 C-38.8125 50.5 -38.8125 50.5 -37.8125 49.5 C-35.95962498 49.42773498 -34.10416122 49.4161878 -32.25 49.4375 C-31.23808594 49.44652344 -30.22617188 49.45554688 -29.18359375 49.46484375 C-28.00990234 49.48224609 -28.00990234 49.48224609 -26.8125 49.5 C-27.39816043 53.63012619 -28.36316956 57.28176761 -29.8125 61.1875 C-33.15265519 70.93650213 -33.15265519 70.93650213 -31.8203125 80.8125 C-31.48773438 81.369375 -31.15515625 81.92625 -30.8125 82.5 C-22.85257183 83.27031563 -18.07300823 81.47849289 -11.8125 76.5 C-4.6583045 69.47076861 -0.57854839 59.56075661 -0.25 49.625 C-0.48923435 44.4906628 -1.00468714 41.21261753 -4.8125 37.5 C-11.12372469 32.58437782 -18.12935536 32.84571761 -25.8125 33.5 C-28.89909509 34.00167799 -31.7887566 34.68000179 -34.8125 35.5 C-31.74411313 29.17145208 -26.39433569 24.95521648 -20.375 21.5625 C-12.80199165 19.30388347 -5.95080566 20.15981169 1.1875 23.5 C6.2905332 26.86992759 9.62039634 30.5808256 11.1875 36.5 C11.69437738 43.21791012 11.7381653 49.90652073 10.1875 56.5 C13.63802241 49.29063019 13.63802241 49.29063019 15.1875 41.5 C15.25066406 40.83484375 15.31382813 40.1696875 15.37890625 39.484375 C15.71881215 33.21256286 14.40435741 27.91504331 11.1875 22.5 C7.53636084 18.44484134 2.96474155 13.90667382 -2.68554688 13.29833984 C-4.98159929 13.19364563 -7.26415721 13.17811134 -9.5625 13.1875 C-10.3359375 13.17138672 -11.109375 13.15527344 -11.90625 13.13867188 C-17.51581715 13.13396586 -21.66525904 14.27305443 -26.8125 16.5 C-24.17247207 10.01993143 -18.033288 5.4575448 -12.203125 1.9140625 C-7.988433 0.15632229 -4.52041285 -0.03630664 0 0 Z " fill="#EA4D22" transform="translate(97.8125,25.5)"/>
<path d="M0 0 C5.12907688 3.38712624 8.38751097 7.07546167 10 13 C11.56020985 26.97820664 8.46914628 37.74479089 -0.13623047 48.60864258 C-3.40767138 52.53860459 -6.55252048 55.49829277 -11 58 C-11.66 58 -12.32 58 -13 58 C-13 58.66 -13 59.32 -13 60 C-20.67782866 62.31783507 -28.83354775 63.73679399 -36.4375 60.4375 C-40.31374317 58.14518371 -42.70840925 55.33490144 -44 51 C-45.29543232 42.56619582 -42.98888604 34.85032719 -40 27 C-39 26 -39 26 -36.49609375 25.90234375 C-35.48675781 25.91394531 -34.47742188 25.92554687 -33.4375 25.9375 C-32.42558594 25.94652344 -31.41367188 25.95554687 -30.37109375 25.96484375 C-29.19740234 25.98224609 -29.19740234 25.98224609 -28 26 C-28.58566043 30.13012619 -29.55066956 33.78176761 -31 37.6875 C-34.34015519 47.43650213 -34.34015519 47.43650213 -33.0078125 57.3125 C-32.67523438 57.869375 -32.34265625 58.42625 -32 59 C-24.04007183 59.77031563 -19.26050823 57.97849289 -13 53 C-5.8458045 45.97076861 -1.76604839 36.06075661 -1.4375 26.125 C-1.67673435 20.9906628 -2.19218714 17.71261753 -6 14 C-12.31122469 9.08437782 -19.31685536 9.34571761 -27 10 C-30.08659509 10.50167799 -32.9762566 11.18000179 -36 12 C-32.93161313 5.67145208 -27.58183569 1.45521648 -21.5625 -1.9375 C-13.98949165 -4.19611653 -7.13830566 -3.34018831 0 0 Z " fill="#1A953F" transform="translate(99,49)"/>
<path d="M0 0 C1.03125 -0.00128906 2.0625 -0.00257812 3.125 -0.00390625 C6.63872145 0.68833507 7.81455878 1.77505066 10 4.5625 C10.92982259 7.35196776 11.12857619 9.05860007 11.1328125 11.94140625 C11.13474609 13.19920898 11.13474609 13.19920898 11.13671875 14.48242188 C11.13285156 15.35447266 11.12898438 16.22652344 11.125 17.125 C11.13080078 18.43887695 11.13080078 18.43887695 11.13671875 19.77929688 C11.13542969 20.61654297 11.13414063 21.45378906 11.1328125 22.31640625 C11.13168457 23.08283447 11.13055664 23.8492627 11.12939453 24.63891602 C11 26.5625 11 26.5625 10 28.5625 C8.35 28.5625 6.7 28.5625 5 28.5625 C4.67 26.2525 4.34 23.9425 4 21.5625 C1.36 21.5625 -1.28 21.5625 -4 21.5625 C-4 23.5425 -4 25.5225 -4 27.5625 C-5.65614657 27.94468767 -7.32457024 28.27645102 -9 28.5625 C-11.41748194 26.14501806 -10.28171076 20.05563326 -10.3125 16.8125 C-10.34150391 15.80960938 -10.37050781 14.80671875 -10.40039062 13.7734375 C-10.43847694 9.35542505 -10.41493799 6.36182236 -8.35546875 2.39453125 C-5.38345804 0.08296736 -3.73869632 -0.0794473 0 0 Z " fill="#172E9C" transform="translate(61,117.4375)"/>
<path d="M0 0 C1.15113281 -0.03738281 2.30226563 -0.07476562 3.48828125 -0.11328125 C6.6875 0.3125 6.6875 0.3125 9.0859375 2.140625 C11.21274633 5.02478527 11.06083185 6.80318057 10.6875 10.3125 C10.3575 11.3025 10.0275 12.2925 9.6875 13.3125 C10.1825 13.89 10.6775 14.4675 11.1875 15.0625 C12.6875 17.3125 12.6875 17.3125 12.625 20.8125 C11.57739551 24.72355677 10.88149636 25.90656483 7.6875 28.3125 C4.26953125 28.73828125 4.26953125 28.73828125 0.5 28.625 C-1.37751953 28.58826172 -1.37751953 28.58826172 -3.29296875 28.55078125 C-6.3125 28.3125 -6.3125 28.3125 -7.3125 27.3125 C-7.41221786 25.39791718 -7.44330589 23.47967683 -7.4453125 21.5625 C-7.44660156 20.3971875 -7.44789063 19.231875 -7.44921875 18.03125 C-7.44535156 16.8040625 -7.44148437 15.576875 -7.4375 14.3125 C-7.44136719 13.0853125 -7.44523438 11.858125 -7.44921875 10.59375 C-7.44792969 9.4284375 -7.44664062 8.263125 -7.4453125 7.0625 C-7.44418457 5.98484375 -7.44305664 4.9071875 -7.44189453 3.796875 C-7.19149601 -1.0107766 -4.1921554 0.0885995 0 0 Z " fill="#132A9B" transform="translate(8.3125,117.6875)"/>
<path d="M0 0 C1.97753906 0.17749023 1.97753906 0.17749023 4 1 C5.74326442 3.33493529 7.25867972 5.57777582 8.75 8.0625 C9.16121094 8.72572266 9.57242188 9.38894531 9.99609375 10.07226562 C11.00824336 11.70818186 12.00557507 13.35324932 13 15 C13.33 10.71 13.66 6.42 14 2 C15.65 1.67 17.3 1.34 19 1 C20.77449594 2.77449594 20.13030072 5.35017261 20.1328125 7.75 C20.13474609 9.49796875 20.13474609 9.49796875 20.13671875 11.28125 C20.13285156 12.5084375 20.12898438 13.735625 20.125 15 C20.13080078 16.84078125 20.13080078 16.84078125 20.13671875 18.71875 C20.13542969 19.8840625 20.13414062 21.049375 20.1328125 22.25 C20.13168457 23.32765625 20.13055664 24.4053125 20.12939453 25.515625 C20 28 20 28 19 29 C16.73828125 29.5 16.73828125 29.5 14 29 C12.12571214 26.6638447 10.67361142 24.56174947 9.1875 22 C8.78080078 21.33226562 8.37410156 20.66453125 7.95507812 19.9765625 C6.95383043 18.32744865 5.97474159 16.6649181 5 15 C4.67 19.29 4.34 23.58 4 28 C2.35 28.33 0.7 28.66 -1 29 C-3.64540597 26.35459403 -2.18562153 18.62595815 -2.1875 15.0625 C-2.20586914 13.23428711 -2.20586914 13.23428711 -2.22460938 11.36914062 C-2.22654297 10.20705078 -2.22847656 9.04496094 -2.23046875 7.84765625 C-2.23457764 6.77523682 -2.23868652 5.70281738 -2.24291992 4.59790039 C-2 2 -2 2 0 0 Z " fill="#0D2699" transform="translate(135,117)"/>
<path d="M0 0 C1.65 0 3.3 0 5 0 C5 3.63 5 7.26 5 11 C8.3 11 11.6 11 15 11 C15 7.7 15 4.4 15 1 C16.65614657 0.61781233 18.32457024 0.28604898 20 0 C21 1 21 1 21.11352539 3.50024414 C21.10828857 4.58426514 21.10305176 5.66828613 21.09765625 6.78515625 C21.09443359 7.95498047 21.09121094 9.12480469 21.08789062 10.33007812 C21.07951172 11.56177734 21.07113281 12.79347656 21.0625 14.0625 C21.05798828 15.29806641 21.05347656 16.53363281 21.04882812 17.80664062 C21.03699608 20.87114117 21.02051173 23.93554721 21 27 C19.34385343 27.38218767 17.67542976 27.71395102 16 28 C15 27 15 27 14.90234375 24.71484375 C14.91394531 23.79832031 14.92554687 22.88179687 14.9375 21.9375 C14.94652344 21.01839844 14.95554687 20.09929687 14.96484375 19.15234375 C14.97644531 18.44207031 14.98804687 17.73179687 15 17 C12.03 17 9.06 17 6 17 C6.020625 18.44375 6.04125 19.8875 6.0625 21.375 C6.125 25.75 6.125 25.75 5 28 C3.35 28 1.7 28 0 28 C-1.3241409 25.35171821 -1.12957042 23.33319888 -1.1328125 20.37109375 C-1.13410156 19.25412109 -1.13539062 18.13714844 -1.13671875 16.98632812 C-1.13285156 15.81521484 -1.12898438 14.64410156 -1.125 13.4375 C-1.12886719 12.26251953 -1.13273437 11.08753906 -1.13671875 9.87695312 C-1.13542969 8.76126953 -1.13414063 7.64558594 -1.1328125 6.49609375 C-1.13168457 5.46669678 -1.13055664 4.4372998 -1.12939453 3.37670898 C-1 1 -1 1 0 0 Z " fill="#152C9C" transform="translate(97,118)"/>
<path d="M0 0 C1.65 0 3.3 0 5 0 C6 1 6 1 6.09765625 3.28515625 C6.08605469 4.20167969 6.07445312 5.11820312 6.0625 6.0625 C6.05347656 6.98160156 6.04445313 7.90070313 6.03515625 8.84765625 C6.02355469 9.55792969 6.01195312 10.26820313 6 11 C8.97 11 11.94 11 15 11 C15 7.7 15 4.4 15 1 C16.65614657 0.61781233 18.32457024 0.28604898 20 0 C21 1 21 1 21.11352539 3.50024414 C21.10828857 4.58426514 21.10305176 5.66828613 21.09765625 6.78515625 C21.09443359 7.95498047 21.09121094 9.12480469 21.08789062 10.33007812 C21.07951172 11.56177734 21.07113281 12.79347656 21.0625 14.0625 C21.05798828 15.29806641 21.05347656 16.53363281 21.04882812 17.80664062 C21.03699608 20.87114117 21.02051173 23.93554721 21 27 C19.34385343 27.38218767 17.67542976 27.71395102 16 28 C15 27 15 27 14.90234375 24.71484375 C14.91394531 23.79832031 14.92554688 22.88179687 14.9375 21.9375 C14.94652344 21.01839844 14.95554687 20.09929687 14.96484375 19.15234375 C14.97644531 18.44207031 14.98804688 17.73179687 15 17 C12.03 17 9.06 17 6 17 C6.020625 18.44375 6.04125 19.8875 6.0625 21.375 C6.125 25.75 6.125 25.75 5 28 C3.35 27.67 1.7 27.34 0 27 C0 18.09 0 9.18 0 0 Z " fill="#0E2699" transform="translate(25,118)"/>
<path d="M0 0 C1.51400391 0.01740234 1.51400391 0.01740234 3.05859375 0.03515625 C4.07050781 0.04417969 5.08242187 0.05320312 6.125 0.0625 C7.29869141 0.07990234 7.29869141 0.07990234 8.49609375 0.09765625 C7.91043332 4.22778244 6.94542419 7.87942386 5.49609375 11.78515625 C2.91124284 19.36990125 1.02833309 26.58417481 4.49609375 34.09765625 C2.30859375 34.41015625 2.30859375 34.41015625 -0.50390625 34.09765625 C-4.36701049 30.86342945 -7.11304551 27.82004672 -7.83984375 22.7578125 C-7.95609843 15.02687632 -6.25005152 8.31042334 -3.50390625 1.09765625 C-2.50390625 0.09765625 -2.50390625 0.09765625 0 0 Z " fill="#135CAB" transform="translate(62.50390625,74.90234375)"/>
<path d="M0 0 C0.99 0.66 1.98 1.32 3 2 C2.67 3.65 2.34 5.3 2 7 C-0.64 6.67 -3.28 6.34 -6 6 C-5.42557356 8.44278263 -5.42557356 8.44278263 -4 11 C-1.08333333 12.66666667 -1.08333333 12.66666667 2 14 C3.875 15.25 3.875 15.25 5 17 C5.54763378 21.22460345 5.473273 23.27431473 3.125 26.875 C0.2054099 29.7945901 -1.41612056 30.170761 -5.4375 30.25 C-6.21996094 30.27578125 -7.00242187 30.3015625 -7.80859375 30.328125 C-10.50917907 29.92375928 -11.38437189 29.16462795 -13 27 C-12.875 24.875 -12.875 24.875 -12 23 C-8.52176885 21.84058962 -6.54104422 22.29179116 -3 23 C-3 21.68 -3 20.36 -3 19 C-4.67892125 17.49357533 -4.67892125 17.49357533 -6.875 16.375 C-9.2904476 15.01576963 -11.0258668 13.9741332 -13 12 C-13.56823055 7.697683 -13.46762853 5.6868294 -11 2.0625 C-6.89979388 -0.75639171 -4.90487343 -0.55377603 0 0 Z " fill="#11299A" transform="translate(88,117)"/>
<path d="M0 0 C2.5 0.125 2.5 0.125 3.5 1.125 C3.59962237 2.95485622 3.63080452 4.78852878 3.6328125 6.62109375 C3.63410156 7.73677734 3.63539063 8.85246094 3.63671875 10.00195312 C3.63285156 11.17693359 3.62898437 12.35191406 3.625 13.5625 C3.62886719 14.73361328 3.63273438 15.90472656 3.63671875 17.11132812 C3.63542969 18.22830078 3.63414062 19.34527344 3.6328125 20.49609375 C3.63168457 21.52661865 3.63055664 22.55714355 3.62939453 23.61889648 C3.5 26.125 3.5 26.125 2.5 28.125 C0.85 28.125 -0.8 28.125 -2.5 28.125 C-3.8241409 25.47671821 -3.62957042 23.45819888 -3.6328125 20.49609375 C-3.63410156 19.37912109 -3.63539062 18.26214844 -3.63671875 17.11132812 C-3.63285156 15.94021484 -3.62898438 14.76910156 -3.625 13.5625 C-3.62886719 12.38751953 -3.63273437 11.21253906 -3.63671875 10.00195312 C-3.63542969 8.88626953 -3.63414063 7.77058594 -3.6328125 6.62109375 C-3.63168457 5.59169678 -3.63055664 4.5622998 -3.62939453 3.50170898 C-3.45079132 0.22113866 -3.29045804 0.1645229 0 0 Z " fill="#3549A9" transform="translate(125.5,117.875)"/>
<path d="M0 0 C1.65 0 3.3 0 5 0 C6.74073204 1.74073204 6.13022093 4.13091635 6.1328125 6.49609375 C6.13410156 7.61177734 6.13539063 8.72746094 6.13671875 9.87695312 C6.13285156 11.05193359 6.12898437 12.22691406 6.125 13.4375 C6.12886719 14.60861328 6.13273438 15.77972656 6.13671875 16.98632812 C6.13542969 18.10330078 6.13414062 19.22027344 6.1328125 20.37109375 C6.13168457 21.40161865 6.13055664 22.43214355 6.12939453 23.49389648 C6 26 6 26 5 28 C3.35 28 1.7 28 0 28 C0 18.76 0 9.52 0 0 Z " fill="#182D9C" transform="translate(160,118)"/>
<path d="M0 0 C1.65 0 3.3 0 5 0 C4.67 8.91 4.34 17.82 4 27 C3.01 27 2.02 27 1 27 C0.67 18.09 0.34 9.18 0 0 Z " fill="#0D2598" transform="translate(123,118)"/>
<path d="M0 0 C3 0.125 3 0.125 4 1.125 C4.14115161 3.79558851 4.04247107 6.44932238 4 9.125 C1.36 9.125 -1.28 9.125 -4 9.125 C-4.09765625 2.97265625 -4.09765625 2.97265625 -4 1.125 C-3 0.125 -3 0.125 0 0 Z " fill="#FBFBFD" transform="translate(61,123.875)"/>
<path d="M0 0 C0.66 0.33 1.32 0.66 2 1 C1.67 1.99 1.34 2.98 1 4 C0.34 4 -0.32 4 -1 4 C-1 4.66 -1 5.32 -1 6 C-2.98 6.99 -2.98 6.99 -5 8 C-5.28875 7.360625 -5.5775 6.72125 -5.875 6.0625 C-6.82823451 3.84793921 -6.82823451 3.84793921 -9 3 C-9 2.01 -9 1.02 -9 0 C-5.90914327 -1.54542837 -3.32167685 -0.59315658 0 0 Z " fill="#6191C7" transform="translate(70,66)"/>
<path d="M0 0 C1.99954746 -0.04254356 4.00041636 -0.04080783 6 0 C7 1 7 1 7.125 3.5 C7 6 7 6 6 7 C4.00041636 7.04080783 1.99954746 7.04254356 0 7 C0 4.69 0 2.38 0 0 Z " fill="#DFE2F0" transform="translate(7,134)"/>
<path d="M0 0 C1.65 0 3.3 0 5 0 C5.33 1.65 5.66 3.3 6 5 C4.02 5.33 2.04 5.66 0 6 C0 4.02 0 2.04 0 0 Z " fill="#D5DAED" transform="translate(7,123)"/>
<path d="M0 0 C1 3 1 3 0.22265625 5.04296875 C-0.16019531 5.75066406 -0.54304688 6.45835938 -0.9375 7.1875 C-1.31777344 7.90292969 -1.69804688 8.61835937 -2.08984375 9.35546875 C-2.54037109 10.16951172 -2.54037109 10.16951172 -3 11 C-4.3968009 6.80959731 -2.86445675 4.87233324 -1 1 C-0.67 0.67 -0.34 0.34 0 0 Z " fill="#E0E5D7" transform="translate(110,75)"/>
</svg>
